Griffith_Gothic-Light.ufo
<glyph name="quotesingle" format="1">
  <advance width="186"/>
  <unicode hex="0027"/>
  <outline>
    <contour>
      <point x="130" y="720" type="line"/>
      <point x="113" y="505" type="line"/>
      <point x="73" y="505" type="line"/>
      <point x="56" y="720" type="line"/>
    </contour>
  </outline>
</glyph>
<glyph name="asterisk" format="1">
  <advance width="440"/>
  <unicode hex="002A"/>
  <outline>
    <contour>
      <point x="400" y="570" type="line"/>
      <point x="242" y="539" type="line"/>
      <point x="354" y="421" type="line"/>
      <point x="301" y="382" type="line"/>
      <point x="220" y="526" type="line"/>
      <point x="139" y="382" type="line"/>
      <point x="86" y="421" type="line"/>
      <point x="198" y="539" type="line"/>
      <point x="40" y="570" type="line"/>
      <point x="61" y="632" type="line"/>
      <point x="207" y="561" type="line"/>
      <point x="187" y="720" type="line"/>
      <point x="253" y="720" type="line"/>
      <point x="233" y="561" type="line"/>
      <point x="380" y="631" type="line"/>
    </contour>
  </outline>
</glyph>
<glyph name="comma" format="1">
  <advance width="186"/>
  <unicode hex="002C"/>
  <outline>
    <contour>
      <point x="142" y="96" type="line"/>
      <point x="73" y="-119" type="line"/>
      <point x="31" y="-119" type="line"/>
      <point x="65" y="96" type="line"/>
    </contour>
  </outline>
</glyph>
<glyph name="zero" format="1">
  <advance width="596"/>
  <unicode hex="0030"/>
  <outline>
    <contour>
      <point x="543" y="352" type="line" smooth="yes"/>
      <point x="543" y="130"/>
      <point x="451" y="-12"/>
      <point x="298" y="-12" type="curve" smooth="yes"/>
      <point x="145" y="-12"/>
      <point x="52" y="129"/>
      <point x="52" y="351" type="curve" smooth="yes"/>
      <point x="52" y="368" type="line" smooth="yes"/>
      <point x="52" y="590"/>
      <point x="145" y="732"/>
      <point x="298" y="732" type="curve" smooth="yes"/>
      <point x="451" y="732"/>
      <point x="543" y="591"/>
      <point x="543" y="369" type="curve" smooth="yes"/>
    </contour>
    <contour>
      <point x="471" y="346" type="curve" smooth="yes"/>
      <point x="471" y="372" type="line" smooth="yes"/>
      <point x="471" y="545"/>
      <point x="414" y="676"/>
      <point x="298" y="676" type="curve" smooth="yes"/>
      <point x="181" y="676"/>
      <point x="124" y="546"/>
      <point x="124" y="374" type="curve" smooth="yes"/>
      <point x="124" y="348" type="line" smooth="yes"/>
      <point x="124" y="175"/>
      <point x="181" y="44"/>
      <point x="298" y="44" type="curve" smooth="yes"/>
      <point x="414" y="44"/>
      <point x="471" y="173"/>
    </contour>
  </outline>
</glyph>
<glyph name="one" format="1">
  <advance width="443"/>
  <unicode hex="0031"/>
  <outline>
    <contour>
      <point x="419" y="0" type="line"/>
      <point x="52" y="0" type="line"/>
      <point x="52" y="50" type="line"/>
      <point x="204" y="50" type="line"/>
      <point x="204" y="670" type="line"/>
      <point x="40" y="670" type="line"/>
      <point x="40" y="720" type="line"/>
      <point x="272" y="720" type="line"/>
      <point x="272" y="50" type="line"/>
      <point x="419" y="50" type="line"/>
    </contour>
  </outline>
</glyph>
<glyph name="three" format="1">
  <advance width="519"/>
  <unicode hex="0033"/>
  <outline>
    <contour>
      <point x="478" y="252" type="curve" smooth="yes"/>
      <point x="478" y="87"/>
      <point x="273" y="-8"/>
      <point x="20" y="-6" type="curve"/>
      <point x="20" y="47" type="line"/>
      <point x="247" y="48"/>
      <point x="408" y="122"/>
      <point x="408" y="251" type="curve" smooth="yes"/>
      <point x="408" y="327"/>
      <point x="358" y="364"/>
      <point x="282" y="364" type="curve" smooth="yes"/>
      <point x="239" y="364"/>
      <point x="212" y="358"/>
      <point x="181" y="348" type="curve"/>
      <point x="163" y="395" type="line"/>
      <point x="303" y="450"/>
      <point x="369" y="494"/>
      <point x="369" y="575" type="curve" smooth="yes"/>
      <point x="369" y="637"/>
      <point x="329" y="678"/>
      <point x="259" y="678" type="curve" smooth="yes"/>
      <point x="198" y="678"/>
      <point x="142" y="644"/>
      <point x="87" y="585" type="curve"/>
      <point x="48" y="623" type="line"/>
      <point x="106" y="685"/>
      <point x="175" y="732"/>
      <point x="266" y="732" type="curve" smooth="yes"/>
      <point x="376" y="732"/>
      <point x="438" y="671"/>
      <point x="438" y="585" type="curve" smooth="yes"/>
      <point x="438" y="500"/>
      <point x="376" y="447"/>
      <point x="274" y="405" type="curve"/>
      <point x="276" y="401" type="line"/>
      <point x="389" y="415"/>
      <point x="478" y="366"/>
    </contour>
  </outline>
</glyph>
<glyph name="four" format="1">
  <advance width="574"/>
  <unicode hex="0034"/>
  <outline>
    <contour>
      <point x="536" y="203" type="line"/>
      <point x="441" y="203" type="line"/>
      <point x="441" y="0" type="line"/>
      <point x="372" y="0" type="line"/>
      <point x="372" y="203" type="line"/>
      <point x="39" y="203" type="line"/>
      <point x="39" y="269" type="line"/>
      <point x="340" y="720" type="line"/>
      <point x="441" y="720" type="line"/>
      <point x="441" y="250" type="line"/>
      <point x="536" y="250" type="line"/>
    </contour>
    <contour>
      <point x="372" y="250" type="line"/>
      <point x="372" y="661" type="line"/>
      <point x="359" y="661" type="line"/>
      <point x="93" y="263" type="line"/>
      <point x="93" y="250" type="line"/>
    </contour>
  </outline>
</glyph>
<glyph name="six" format="1">
  <advance width="558"/>
  <unicode hex="0036"/>
  <outline>
    <contour>
      <point x="526" y="224" type="curve" smooth="yes"/>
      <point x="526" y="82"/>
      <point x="419" y="-12"/>
      <point x="284" y="-12" type="curve" smooth="yes"/>
      <point x="148" y="-12"/>
      <point x="48" y="76"/>
      <point x="48" y="247" type="curve" smooth="yes"/>
      <point x="48" y="412"/>
      <point x="132" y="586"/>
      <point x="278" y="720" type="curve"/>
      <point x="366" y="720" type="line"/>
      <point x="231" y="608"/>
      <point x="143" y="469"/>
      <point x="122" y="356" type="curve"/>
      <point x="129" y="356" type="line"/>
      <point x="175" y="413"/>
      <point x="229" y="448"/>
      <point x="312" y="448" type="curve" smooth="yes"/>
      <point x="432" y="448"/>
      <point x="526" y="365"/>
    </contour>
    <contour>
      <point x="457" y="221" type="curve" smooth="yes"/>
      <point x="457" y="328"/>
      <point x="394" y="396"/>
      <point x="294" y="396" type="curve" smooth="yes"/>
      <point x="191" y="396"/>
      <point x="118" y="318"/>
      <point x="118" y="220" type="curve" smooth="yes"/>
      <point x="118" y="113"/>
      <point x="189" y="40"/>
      <point x="286" y="40" type="curve" smooth="yes"/>
      <point x="383" y="40"/>
      <point x="457" y="111"/>
    </contour>
  </outline>
</glyph>
<glyph name="colon" format="1">
  <advance width="204"/>
  <unicode hex="003A"/>
  <outline>
    <contour>
      <point x="152" y="472" type="curve" smooth="yes"/>
      <point x="152" y="443"/>
      <point x="131" y="422"/>
      <point x="102" y="422" type="curve" smooth="yes"/>
      <point x="73" y="422"/>
      <point x="53" y="443"/>
      <point x="53" y="472" type="curve" smooth="yes"/>
      <point x="53" y="500"/>
      <point x="73" y="521"/>
      <point x="102" y="521" type="curve" smooth="yes"/>
      <point x="131" y="521"/>
      <point x="152" y="500"/>
    </contour>
    <contour>
      <point x="152" y="43" type="curve" smooth="yes"/>
      <point x="152" y="14"/>
      <point x="131" y="-7"/>
      <point x="102" y="-7" type="curve" smooth="yes"/>
      <point x="73" y="-7"/>
      <point x="53" y="14"/>
      <point x="53" y="43" type="curve" smooth="yes"/>
      <point x="53" y="71"/>
      <point x="73" y="92"/>
      <point x="102" y="92" type="curve" smooth="yes"/>
      <point x="131" y="92"/>
      <point x="152" y="71"/>
    </contour>
  </outline>
</glyph>
<glyph name="question" format="1">
  <advance width="442"/>
  <unicode hex="003F"/>
  <outline>
    <contour>
      <point x="397" y="572" type="curve" smooth="yes"/>
      <point x="397" y="495"/>
      <point x="367" y="459"/>
      <point x="295" y="390" type="curve" smooth="yes"/>
      <point x="240" y="337"/>
      <point x="224" y="305"/>
      <point x="223" y="207" type="curve"/>
      <point x="179" y="207" type="line"/>
      <point x="175" y="325"/>
      <point x="188" y="365"/>
      <point x="253" y="427" type="curve" smooth="yes"/>
      <point x="305" y="478"/>
      <point x="327" y="517"/>
      <point x="327" y="569" type="curve" smooth="yes"/>
      <point x="327" y="632"/>
      <point x="287" y="677"/>
      <point x="219" y="677" type="curve" smooth="yes"/>
      <point x="146" y="677"/>
      <point x="107" y="642"/>
      <point x="74" y="567" type="curve"/>
      <point x="21" y="591" type="line"/>
      <point x="59" y="680"/>
      <point x="118" y="732"/>
      <point x="222" y="732" type="curve" smooth="yes"/>
      <point x="330" y="732"/>
      <point x="397" y="662"/>
    </contour>
    <contour>
      <point x="249" y="42" type="curve" smooth="yes"/>
      <point x="249" y="14"/>
      <point x="229" y="-7"/>
      <point x="201" y="-7" type="curve" smooth="yes"/>
      <point x="173" y="-7"/>
      <point x="152" y="14"/>
      <point x="152" y="42" type="curve" smooth="yes"/>
      <point x="152" y="70"/>
      <point x="173" y="90"/>
      <point x="201" y="90" type="curve" smooth="yes"/>
      <point x="229" y="90"/>
      <point x="249" y="70"/>
    </contour>
  </outline>
</glyph>
<glyph name="D" format="1">
  <advance width="621"/>
  <unicode hex="0044"/>
  <outline>
    <contour>
      <point x="569" y="356" type="line" smooth="yes"/>
      <point x="569" y="131"/>
      <point x="455" y="0"/>
      <point x="256" y="0" type="curve" smooth="yes"/>
      <point x="84" y="0" type="line"/>
      <point x="84" y="720" type="line"/>
      <point x="260" y="720" type="line" smooth="yes"/>
      <point x="460" y="720"/>
      <point x="569" y="589"/>
      <point x="569" y="366" type="curve" smooth="yes"/>
    </contour>
    <contour>
      <point x="496" y="351" type="curve" smooth="yes"/>
      <point x="496" y="368" type="line" smooth="yes"/>
      <point x="496" y="561"/>
      <point x="412" y="664"/>
      <point x="255" y="664" type="curve" smooth="yes"/>
      <point x="155" y="664" type="line"/>
      <point x="155" y="56" type="line"/>
      <point x="259" y="56" type="line" smooth="yes"/>
      <point x="408" y="56"/>
      <point x="496" y="159"/>
    </contour>
  </outline>
</glyph>
<glyph name="F" format="1">
  <advance width="525"/>
  <unicode hex="0046"/>
  <outline>
    <contour>
      <point x="501" y="663" type="line"/>
      <point x="156" y="663" type="line"/>
      <point x="156" y="388" type="line"/>
      <point x="433" y="388" type="line"/>
      <point x="433" y="332" type="line"/>
      <point x="156" y="332" type="line"/>
      <point x="156" y="0" type="line"/>
      <point x="84" y="0" type="line"/>
      <point x="84" y="720" type="line"/>
      <point x="501" y="720" type="line"/>
    </contour>
  </outline>
</glyph>
<glyph name="H" format="1">
  <advance width="627"/>
  <unicode hex="0048"/>
  <outline>
    <contour>
      <point x="543" y="0" type="line"/>
      <point x="471" y="0" type="line"/>
      <point x="471" y="347" type="line"/>
      <point x="156" y="347" type="line"/>
      <point x="156" y="0" type="line"/>
      <point x="84" y="0" type="line"/>
      <point x="84" y="720" type="line"/>
      <point x="156" y="720" type="line"/>
      <point x="156" y="407" type="line"/>
      <point x="471" y="407" type="line"/>
      <point x="471" y="720" type="line"/>
      <point x="543" y="720" type="line"/>
    </contour>
  </outline>
</glyph>
<glyph name="N" format="1">
  <advance width="644"/>
  <unicode hex="004E"/>
  <outline>
    <contour>
      <point x="560" y="0" type="line"/>
      <point x="471" y="0" type="line"/>
      <point x="158" y="628" type="line"/>
      <point x="151" y="628" type="line"/>
      <point x="151" y="0" type="line"/>
      <point x="84" y="0" type="line"/>
      <point x="84" y="720" type="line"/>
      <point x="179" y="720" type="line"/>
      <point x="485" y="105" type="line"/>
      <point x="493" y="105" type="line"/>
      <point x="493" y="720" type="line"/>
      <point x="560" y="720" type="line"/>
    </contour>
  </outline>
</glyph>
<glyph name="O" format="1">
  <advance width="617"/>
  <unicode hex="004F"/>
  <outline>
    <contour>
      <point x="564" y="354" type="line" smooth="yes"/>
      <point x="564" y="131"/>
      <point x="469" y="-12"/>
      <point x="308" y="-12" type="curve" smooth="yes"/>
      <point x="148" y="-12"/>
      <point x="53" y="129"/>
      <point x="53" y="353" type="curve" smooth="yes"/>
      <point x="53" y="366" type="line" smooth="yes"/>
      <point x="53" y="589"/>
      <point x="148" y="732"/>
      <point x="308" y="732" type="curve" smooth="yes"/>
      <point x="469" y="732"/>
      <point x="564" y="591"/>
      <point x="564" y="367" type="curve" smooth="yes"/>
    </contour>
    <contour>
      <point x="491" y="348" type="curve" smooth="yes"/>
      <point x="491" y="370" type="line" smooth="yes"/>
      <point x="491" y="548"/>
      <point x="432" y="676"/>
      <point x="308" y="676" type="curve" smooth="yes"/>
      <point x="185" y="676"/>
      <point x="125" y="549"/>
      <point x="125" y="372" type="curve" smooth="yes"/>
      <point x="125" y="350" type="line" smooth="yes"/>
      <point x="125" y="171"/>
      <point x="185" y="44"/>
      <point x="308" y="44" type="curve" smooth="yes"/>
      <point x="432" y="44"/>
      <point x="491" y="170"/>
    </contour>
  </outline>
</glyph>
<glyph name="P" format="1">
  <advance width="571"/>
  <unicode hex="0050"/>
  <outline>
    <contour>
      <point x="531" y="515" type="curve" smooth="yes"/>
      <point x="531" y="381"/>
      <point x="445" y="306"/>
      <point x="291" y="306" type="curve" smooth="yes"/>
      <point x="156" y="306" type="line"/>
      <point x="156" y="0" type="line"/>
      <point x="84" y="0" type="line"/>
      <point x="84" y="720" type="line"/>
      <point x="296" y="720" type="line" smooth="yes"/>
      <point x="444" y="720"/>
      <point x="531" y="648"/>
    </contour>
    <contour>
      <point x="460" y="513" type="curve" smooth="yes"/>
      <point x="460" y="611"/>
      <point x="402" y="666"/>
      <point x="289" y="666" type="curve" smooth="yes"/>
      <point x="154" y="666" type="line"/>
      <point x="154" y="361" type="line"/>
      <point x="293" y="361" type="line" smooth="yes"/>
      <point x="400" y="361"/>
      <point x="460" y="412"/>
    </contour>
  </outline>
</glyph>
<glyph name="S" format="1">
  <advance width="565"/>
  <unicode hex="0053"/>
  <outline>
    <contour>
      <point x="517" y="183" type="curve" smooth="yes"/>
      <point x="517" y="55"/>
      <point x="413" y="-12"/>
      <point x="290" y="-12" type="curve" smooth="yes"/>
      <point x="164" y="-12"/>
      <point x="82" y="43"/>
      <point x="43" y="152" type="curve"/>
      <point x="97" y="185" type="line"/>
      <point x="132" y="89"/>
      <point x="200" y="44"/>
      <point x="291" y="44" type="curve" smooth="yes"/>
      <point x="380" y="44"/>
      <point x="450" y="92"/>
      <point x="450" y="177" type="curve" smooth="yes"/>
      <point x="450" y="255"/>
      <point x="415" y="295"/>
      <point x="274" y="341" type="curve" smooth="yes"/>
      <point x="119" y="391"/>
      <point x="65" y="449"/>
      <point x="65" y="554" type="curve" smooth="yes"/>
      <point x="65" y="652"/>
      <point x="146" y="732"/>
      <point x="271" y="732" type="curve" smooth="yes"/>
      <point x="374" y="732"/>
      <point x="452" y="686"/>
      <point x="492" y="593" type="curve"/>
      <point x="439" y="559" type="line"/>
      <point x="404" y="632"/>
      <point x="354" y="676"/>
      <point x="270" y="676" type="curve" smooth="yes"/>
      <point x="180" y="676"/>
      <point x="133" y="620"/>
      <point x="133" y="560" type="curve" smooth="yes"/>
      <point x="133" y="486"/>
      <point x="172" y="448"/>
      <point x="304" y="404" type="curve" smooth="yes"/>
      <point x="466" y="351"/>
      <point x="517" y="291"/>
    </contour>
  </outline>
</glyph>
<glyph name="W" format="1">
  <advance width="959"/>
  <unicode hex="0057"/>
  <outline>
    <contour>
      <point x="919" y="720" type="line"/>
      <point x="727" y="-6" type="line"/>
      <point x="645" y="-6" type="line"/>
      <point x="479" y="636" type="line"/>
      <point x="470" y="636" type="line"/>
      <point x="306" y="-6" type="line"/>
      <point x="224" y="-6" type="line"/>
      <point x="31" y="720" type="line"/>
      <point x="105" y="720" type="line"/>
      <point x="264" y="75" type="line"/>
      <point x="271" y="75" type="line"/>
      <point x="432" y="720" type="line"/>
      <point x="520" y="720" type="line"/>
      <point x="682" y="75" type="line"/>
      <point x="690" y="75" type="line"/>
      <point x="848" y="720" type="line"/>
    </contour>
  </outline>
</glyph>
<glyph name="backslash" format="1">
  <advance width="379"/>
  <unicode hex="005C"/>
  <outline>
    <contour>
      <point x="391" y="-95" type="line"/>
      <point x="324" y="-95" type="line"/>
      <point x="16" y="735" type="line"/>
      <point x="84" y="735" type="line"/>
    </contour>
  </outline>
</glyph>
<glyph name="a" format="1">
  <advance width="487"/>
  <unicode hex="0061"/>
  <outline>
    <contour>
      <point x="465" y="-4" type="line"/>
      <point x="396" y="-4"/>
      <point x="353" y="33"/>
      <point x="346" y="86" type="curve"/>
      <point x="340" y="86" type="line"/>
      <point x="289" y="22"/>
      <point x="236" y="-8"/>
      <point x="173" y="-8" type="curve" smooth="yes"/>
      <point x="96" y="-8"/>
      <point x="32" y="40"/>
      <point x="32" y="129" type="curve" smooth="yes"/>
      <point x="32" y="235"/>
      <point x="138" y="305"/>
      <point x="345" y="305" type="curve"/>
      <point x="345" y="365" type="line" smooth="yes"/>
      <point x="345" y="440"/>
      <point x="314" y="473"/>
      <point x="253" y="473" type="curve" smooth="yes"/>
      <point x="199" y="473"/>
      <point x="153" y="455"/>
      <point x="95" y="422" type="curve"/>
      <point x="74" y="467" type="line"/>
      <point x="131" y="498"/>
      <point x="187" y="522"/>
      <point x="264" y="522" type="curve" smooth="yes"/>
      <point x="364" y="522"/>
      <point x="408" y="474"/>
      <point x="408" y="368" type="curve" smooth="yes"/>
      <point x="408" y="103" type="line" smooth="yes"/>
      <point x="408" y="59"/>
      <point x="426" y="34"/>
      <point x="465" y="30" type="curve"/>
    </contour>
    <contour>
      <point x="345" y="128" type="curve"/>
      <point x="345" y="270" type="line"/>
      <point x="166" y="272"/>
      <point x="95" y="208"/>
      <point x="95" y="135" type="curve" smooth="yes"/>
      <point x="95" y="74"/>
      <point x="137" y="38"/>
      <point x="193" y="38" type="curve" smooth="yes"/>
      <point x="248" y="38"/>
      <point x="302" y="67"/>
    </contour>
  </outline>
</glyph>
<glyph name="b" format="1">
  <advance width="513"/>
  <unicode hex="0062"/>
  <outline>
    <contour>
      <point x="470" y="256" type="line" smooth="yes"/>
      <point x="470" y="83"/>
      <point x="388" y="-10"/>
      <point x="296" y="-10" type="curve" smooth="yes"/>
      <point x="225" y="-10"/>
      <point x="179" y="38"/>
      <point x="142" y="111" type="curve"/>
      <point x="136" y="111" type="line"/>
      <point x="136" y="-9" type="line"/>
      <point x="70" y="13" type="line"/>
      <point x="70" y="738" type="line"/>
      <point x="136" y="761" type="line"/>
      <point x="136" y="404" type="line"/>
      <point x="142" y="404" type="line"/>
      <point x="182" y="479"/>
      <point x="224" y="526"/>
      <point x="298" y="526" type="curve" smooth="yes"/>
      <point x="395" y="526"/>
      <point x="470" y="437"/>
      <point x="470" y="263" type="curve" smooth="yes"/>
    </contour>
    <contour>
      <point x="405" y="257" type="curve" smooth="yes"/>
      <point x="405" y="415"/>
      <point x="344" y="479"/>
      <point x="276" y="479" type="curve" smooth="yes"/>
      <point x="196" y="479"/>
      <point x="134" y="376"/>
      <point x="134" y="258" type="curve" smooth="yes"/>
      <point x="134" y="141"/>
      <point x="195" y="38"/>
      <point x="277" y="38" type="curve" smooth="yes"/>
      <point x="346" y="38"/>
      <point x="405" y="107"/>
    </contour>
  </outline>
</glyph>
<glyph name="c" format="1">
  <advance width="444"/>
  <unicode hex="0063"/>
  <outline>
    <contour>
      <point x="414" y="122" type="line"/>
      <point x="383" y="39"/>
      <point x="326" y="-10"/>
      <point x="240" y="-10" type="curve" smooth="yes"/>
      <point x="120" y="-10"/>
      <point x="42" y="96"/>
      <point x="42" y="254" type="curve" smooth="yes"/>
      <point x="42" y="261" type="line" smooth="yes"/>
      <point x="42" y="417"/>
      <point x="121" y="527"/>
      <point x="244" y="527" type="curve" smooth="yes"/>
      <point x="330" y="527"/>
      <point x="381" y="480"/>
      <point x="411" y="400" type="curve"/>
      <point x="356" y="383" type="line"/>
      <point x="332" y="446"/>
      <point x="300" y="479"/>
      <point x="242" y="479" type="curve" smooth="yes"/>
      <point x="158" y="479"/>
      <point x="108" y="393"/>
      <point x="108" y="261" type="curve" smooth="yes"/>
      <point x="108" y="257" type="line" smooth="yes"/>
      <point x="108" y="125"/>
      <point x="158" y="38"/>
      <point x="243" y="38" type="curve" smooth="yes"/>
      <point x="299" y="38"/>
      <point x="332" y="72"/>
      <point x="360" y="139" type="curve"/>
    </contour>
  </outline>
</glyph>
<glyph name="g" format="1">
  <advance width="513"/>
  <unicode hex="0067"/>
  <outline>
    <contour>
      <point x="443" y="20" type="line" smooth="yes"/>
      <point x="443" y="-133"/>
      <point x="362" y="-190"/>
      <point x="242" y="-190" type="curve" smooth="yes"/>
      <point x="171" y="-190"/>
      <point x="129" y="-179"/>
      <point x="95" y="-165" type="curve"/>
      <point x="95" y="-108" type="line"/>
      <point x="117" y="-108" type="line"/>
      <point x="137" y="-129"/>
      <point x="173" y="-149"/>
      <point x="243" y="-149" type="curve" smooth="yes"/>
      <point x="321" y="-149"/>
      <point x="377" y="-109"/>
      <point x="377" y="8" type="curve" smooth="yes"/>
      <point x="377" y="113" type="line"/>
      <point x="371" y="113" type="line"/>
      <point x="331" y="38"/>
      <point x="289" y="-10"/>
      <point x="215" y="-10" type="curve" smooth="yes"/>
      <point x="118" y="-10"/>
      <point x="43" y="80"/>
      <point x="43" y="254" type="curve" smooth="yes"/>
      <point x="43" y="261" type="line" smooth="yes"/>
      <point x="43" y="434"/>
      <point x="125" y="526"/>
      <point x="217" y="526" type="curve" smooth="yes"/>
      <point x="288" y="526"/>
      <point x="334" y="479"/>
      <point x="371" y="405" type="curve"/>
      <point x="377" y="405" type="line"/>
      <point x="377" y="526" type="line"/>
      <point x="443" y="503" type="line"/>
    </contour>
    <contour>
      <point x="379" y="259" type="curve" smooth="yes"/>
      <point x="379" y="376"/>
      <point x="318" y="479"/>
      <point x="236" y="479" type="curve" smooth="yes"/>
      <point x="167" y="479"/>
      <point x="108" y="410"/>
      <point x="108" y="259" type="curve" smooth="yes"/>
      <point x="108" y="102"/>
      <point x="169" y="38"/>
      <point x="237" y="38" type="curve" smooth="yes"/>
      <point x="317" y="38"/>
      <point x="379" y="141"/>
    </contour>
  </outline>
</glyph>
<glyph name="h" format="1">
  <advance width="493"/>
  <unicode hex="0068"/>
  <outline>
    <contour>
      <point x="427" y="0" type="line"/>
      <point x="361" y="0" type="line"/>
      <point x="361" y="391" type="line" smooth="yes"/>
      <point x="361" y="445"/>
      <point x="337" y="473"/>
      <point x="292" y="473" type="curve" smooth="yes"/>
      <point x="243" y="473"/>
      <point x="187" y="428"/>
      <point x="136" y="346" type="curve"/>
      <point x="136" y="0" type="line"/>
      <point x="70" y="0" type="line"/>
      <point x="70" y="738" type="line"/>
      <point x="136" y="761" type="line"/>
      <point x="136" y="393" type="line"/>
      <point x="142" y="393" type="line"/>
      <point x="196" y="471"/>
      <point x="252" y="522"/>
      <point x="322" y="522" type="curve" smooth="yes"/>
      <point x="393" y="522"/>
      <point x="427" y="474"/>
      <point x="427" y="405" type="curve" smooth="yes"/>
    </contour>
  </outline>
</glyph>
<glyph name="i" format="1">
  <advance width="224"/>
  <unicode hex="0069"/>
  <outline>
    <contour>
      <point x="153" y="637" type="line"/>
      <point x="71" y="637" type="line"/>
      <point x="71" y="722" type="line"/>
      <point x="153" y="722" type="line"/>
    </contour>
    <contour>
      <point x="145" y="0" type="line"/>
      <point x="79" y="0" type="line"/>
      <point x="79" y="517" type="line"/>
      <point x="145" y="517" type="line"/>
    </contour>
  </outline>
</glyph>
<glyph name="k" format="1">
  <advance width="459"/>
  <unicode hex="006B"/>
  <outline>
    <contour>
      <point x="452" y="0" type="line"/>
      <point x="375" y="0" type="line"/>
      <point x="156" y="259" type="line"/>
      <point x="156" y="262" type="line"/>
      <point x="370" y="517" type="line"/>
      <point x="444" y="517" type="line"/>
      <point x="227" y="263" type="line"/>
    </contour>
    <contour>
      <point x="136" y="0" type="line"/>
      <point x="70" y="0" type="line"/>
      <point x="70" y="738" type="line"/>
      <point x="136" y="761" type="line"/>
    </contour>
  </outline>
</glyph>
<glyph name="l" format="1">
  <advance width="224"/>
  <unicode hex="006C"/>
  <outline>
    <contour>
      <point x="145" y="0" type="line"/>
      <point x="79" y="0" type="line"/>
      <point x="79" y="738" type="line"/>
      <point x="145" y="761" type="line"/>
    </contour>
  </outline>
</glyph>
<glyph name="q" format="1">
  <advance width="513"/>
  <unicode hex="0071"/>
  <outline>
    <contour>
      <point x="443" y="-188" type="line"/>
      <point x="377" y="-188" type="line"/>
      <point x="377" y="113" type="line"/>
      <point x="371" y="113" type="line"/>
      <point x="331" y="38"/>
      <point x="289" y="-10"/>
      <point x="215" y="-10" type="curve" smooth="yes"/>
      <point x="118" y="-10"/>
      <point x="43" y="80"/>
      <point x="43" y="254" type="curve" smooth="yes"/>
      <point x="43" y="261" type="line" smooth="yes"/>
      <point x="43" y="434"/>
      <point x="125" y="526"/>
      <point x="217" y="526" type="curve" smooth="yes"/>
      <point x="288" y="526"/>
      <point x="334" y="479"/>
      <point x="371" y="405" type="curve"/>
      <point x="377" y="405" type="line"/>
      <point x="377" y="526" type="line"/>
      <point x="443" y="503" type="line"/>
    </contour>
    <contour>
      <point x="379" y="259" type="curve" smooth="yes"/>
      <point x="379" y="376"/>
      <point x="318" y="479"/>
      <point x="236" y="479" type="curve" smooth="yes"/>
      <point x="167" y="479"/>
      <point x="108" y="410"/>
      <point x="108" y="259" type="curve" smooth="yes"/>
      <point x="108" y="102"/>
      <point x="169" y="38"/>
      <point x="237" y="38" type="curve" smooth="yes"/>
      <point x="317" y="38"/>
      <point x="379" y="141"/>
    </contour>
  </outline>
</glyph>
<glyph name="r" format="1">
  <advance width="370"/>
  <unicode hex="0072"/>
  <outline>
    <contour>
      <point x="353" y="452" type="line"/>
      <point x="266" y="433"/>
      <point x="189" y="361"/>
      <point x="136" y="274" type="curve"/>
      <point x="136" y="0" type="line"/>
      <point x="70" y="0" type="line"/>
      <point x="70" y="503" type="line"/>
      <point x="136" y="526" type="line"/>
      <point x="136" y="323" type="line"/>
      <point x="142" y="323" type="line"/>
      <point x="210" y="440"/>
      <point x="280" y="511"/>
      <point x="353" y="526" type="curve"/>
    </contour>
  </outline>
</glyph>
<glyph name="s" format="1">
  <advance width="407"/>
  <unicode hex="0073"/>
  <outline>
    <contour>
      <point x="374" y="134" type="curve" smooth="yes"/>
      <point x="374" y="40"/>
      <point x="297" y="-8"/>
      <point x="206" y="-8" type="curve" smooth="yes"/>
      <point x="130" y="-8"/>
      <point x="73" y="18"/>
      <point x="30" y="54" type="curve"/>
      <point x="60" y="96" type="line"/>
      <point x="102" y="60"/>
      <point x="150" y="38"/>
      <point x="207" y="38" type="curve" smooth="yes"/>
      <point x="267" y="38"/>
      <point x="314" y="69"/>
      <point x="314" y="127" type="curve" smooth="yes"/>
      <point x="314" y="180"/>
      <point x="287" y="206"/>
      <point x="193" y="240" type="curve" smooth="yes"/>
      <point x="88" y="277"/>
      <point x="45" y="321"/>
      <point x="45" y="392" type="curve" smooth="yes"/>
      <point x="45" y="467"/>
      <point x="107" y="525"/>
      <point x="197" y="525" type="curve" smooth="yes"/>
      <point x="263" y="525"/>
      <point x="305" y="508"/>
      <point x="357" y="472" type="curve"/>
      <point x="326" y="428" type="line"/>
      <point x="282" y="463"/>
      <point x="244" y="479"/>
      <point x="197" y="479" type="curve" smooth="yes"/>
      <point x="136" y="479"/>
      <point x="105" y="442"/>
      <point x="105" y="398" type="curve" smooth="yes"/>
      <point x="105" y="350"/>
      <point x="138" y="323"/>
      <point x="219" y="295" type="curve" smooth="yes"/>
      <point x="335" y="254"/>
      <point x="374" y="210"/>
    </contour>
  </outline>
</glyph>
<glyph name="x" format="1">
  <advance width="473"/>
  <unicode hex="0078"/>
  <outline>
    <contour>
      <point x="444" y="0" type="line"/>
      <point x="371" y="0" type="line"/>
      <point x="234" y="218" type="line"/>
      <point x="97" y="0" type="line"/>
      <point x="30" y="0" type="line"/>
      <point x="203" y="261" type="line"/>
      <point x="35" y="517" type="line"/>
      <point x="108" y="517" type="line"/>
      <point x="239" y="307" type="line"/>
      <point x="370" y="517" type="line"/>
      <point x="438" y="517" type="line"/>
      <point x="270" y="265" type="line"/>
    </contour>
  </outline>
</glyph>
<glyph name="y" format="1">
  <advance width="462"/>
  <unicode hex="0079"/>
  <outline>
    <contour>
      <point x="436" y="517" type="line"/>
      <point x="247" y="-64" type="line" smooth="yes"/>
      <point x="216" y="-160"/>
      <point x="171" y="-193"/>
      <point x="100" y="-193" type="curve" smooth="yes"/>
      <point x="69" y="-193"/>
      <point x="45" y="-186"/>
      <point x="23" y="-176" type="curve"/>
      <point x="23" y="-122" type="line"/>
      <point x="44" y="-122" type="line"/>
      <point x="56" y="-141"/>
      <point x="71" y="-152"/>
      <point x="101" y="-152" type="curve" smooth="yes"/>
      <point x="139" y="-152"/>
      <point x="164" y="-125"/>
      <point x="183" y="-72" type="curve" smooth="yes"/>
      <point x="202" y="-18" type="line"/>
      <point x="26" y="517" type="line"/>
      <point x="95" y="517" type="line"/>
      <point x="233" y="62" type="line"/>
      <point x="371" y="517" type="line"/>
    </contour>
  </outline>
</glyph>
<glyph name="z" format="1">
  <advance width="418"/>
  <unicode hex="007A"/>
  <outline>
    <contour>
      <point x="386" y="0" type="line"/>
      <point x="31" y="0" type="line"/>
      <point x="31" y="42" type="line"/>
      <point x="311" y="465" type="line"/>
      <point x="46" y="465" type="line"/>
      <point x="46" y="513" type="line"/>
      <point x="386" y="513" type="line"/>
      <point x="386" y="471" type="line"/>
      <point x="106" y="48" type="line"/>
      <point x="386" y="48" type="line"/>
    </contour>
  </outline>
</glyph>
<glyph name="braceleft" format="1">
  <advance width="383"/>
  <unicode hex="007B"/>
  <outline>
    <contour>
      <point x="349" y="-80" type="line"/>
      <point x="268" y="-80" type="line" smooth="yes"/>
      <point x="179" y="-80"/>
      <point x="134" y="-35"/>
      <point x="134" y="44" type="curve" smooth="yes"/>
      <point x="134" y="90"/>
      <point x="154" y="159"/>
      <point x="154" y="201" type="curve" smooth="yes"/>
      <point x="154" y="272"/>
      <point x="98" y="300"/>
      <point x="23" y="300" type="curve"/>
      <point x="23" y="340" type="line"/>
      <point x="98" y="340"/>
      <point x="154" y="368"/>
      <point x="154" y="439" type="curve" smooth="yes"/>
      <point x="154" y="481"/>
      <point x="134" y="550"/>
      <point x="134" y="596" type="curve" smooth="yes"/>
      <point x="134" y="675"/>
      <point x="179" y="720"/>
      <point x="268" y="720" type="curve" smooth="yes"/>
      <point x="349" y="720" type="line"/>
      <point x="349" y="681" type="line"/>
      <point x="283" y="681" type="line" smooth="yes"/>
      <point x="225" y="681"/>
      <point x="199" y="645"/>
      <point x="199" y="600" type="curve" smooth="yes"/>
      <point x="199" y="559"/>
      <point x="219" y="497"/>
      <point x="219" y="447" type="curve" smooth="yes"/>
      <point x="219" y="370"/>
      <point x="170" y="343"/>
      <point x="114" y="324" type="curve"/>
      <point x="114" y="316" type="line"/>
      <point x="170" y="297"/>
      <point x="219" y="270"/>
      <point x="219" y="193" type="curve" smooth="yes"/>
      <point x="219" y="143"/>
      <point x="199" y="81"/>
      <point x="199" y="40" type="curve" smooth="yes"/>
      <point x="199" y="-5"/>
      <point x="225" y="-41"/>
      <point x="283" y="-41" type="curve" smooth="yes"/>
      <point x="349" y="-41" type="line"/>
    </contour>
  </outline>
</glyph>
<glyph name="asciitilde" format="1">
  <advance width="387"/>
  <unicode hex="007E"/>
  <outline>
    <contour>
      <point x="347" y="334" type="line"/>
      <point x="348" y="260"/>
      <point x="321" y="226"/>
      <point x="268" y="226" type="curve" smooth="yes"/>
      <point x="213" y="226"/>
      <point x="160" y="283"/>
      <point x="121" y="283" type="curve" smooth="yes"/>
      <point x="92" y="283"/>
      <point x="80" y="266"/>
      <point x="80" y="228" type="curve"/>
      <point x="40" y="228" type="line"/>
      <point x="40" y="302"/>
      <point x="66" y="336"/>
      <point x="119" y="336" type="curve" smooth="yes"/>
      <point x="174" y="336"/>
      <point x="228" y="279"/>
      <point x="267" y="279" type="curve" smooth="yes"/>
      <point x="295" y="279"/>
      <point x="308" y="295"/>
      <point x="308" y="334" type="curve"/>
    </contour>
  </outline>
</glyph>
<glyph name="exclamdown" format="1">
  <advance width="242"/>
  <unicode hex="00A1"/>
  <outline>
    <contour>
      <point x="169" y="679" type="curve" smooth="yes"/>
      <point x="169" y="652"/>
      <point x="148" y="631"/>
      <point x="121" y="631" type="curve" smooth="yes"/>
      <point x="94" y="631"/>
      <point x="73" y="652"/>
      <point x="73" y="679" type="curve" smooth="yes"/>
      <point x="73" y="706"/>
      <point x="94" y="727"/>
      <point x="121" y="727" type="curve" smooth="yes"/>
      <point x="148" y="727"/>
      <point x="169" y="706"/>
    </contour>
    <contour>
      <point x="163" y="0" type="line"/>
      <point x="79" y="0" type="line"/>
      <point x="104" y="513" type="line"/>
      <point x="138" y="513" type="line"/>
    </contour>
  </outline>
</glyph>
<glyph name="cent" format="1">
  <advance width="459"/>
  <unicode hex="00A2"/>
  <outline>
    <contour>
      <point x="414" y="122" type="line"/>
      <point x="383" y="39"/>
      <point x="326" y="-10"/>
      <point x="240" y="-10" type="curve" smooth="yes"/>
      <point x="214" y="-10"/>
      <point x="191" y="-5"/>
      <point x="169" y="5" type="curve"/>
      <point x="130" y="-95" type="line"/>
      <point x="86" y="-95" type="line"/>
      <point x="134" y="24" type="line"/>
      <point x="76" y="67"/>
      <point x="42" y="150"/>
      <point x="42" y="254" type="curve" smooth="yes"/>
      <point x="42" y="261" type="line" smooth="yes"/>
      <point x="42" y="417"/>
      <point x="121" y="527"/>
      <point x="244" y="527" type="curve" smooth="yes"/>
      <point x="275" y="527"/>
      <point x="302" y="521"/>
      <point x="324" y="508" type="curve"/>
      <point x="364" y="612" type="line"/>
      <point x="409" y="612" type="line"/>
      <point x="189" y="50" type="line"/>
      <point x="205" y="41"/>
      <point x="223" y="36"/>
      <point x="243" y="36" type="curve" smooth="yes"/>
      <point x="299" y="36"/>
      <point x="335" y="70"/>
      <point x="363" y="139" type="curve"/>
    </contour>
    <contour>
      <point x="306" y="463" type="line"/>
      <point x="289" y="474"/>
      <point x="268" y="481"/>
      <point x="243" y="481" type="curve" smooth="yes"/>
      <point x="158" y="481"/>
      <point x="105" y="394"/>
      <point x="105" y="261" type="curve" smooth="yes"/>
      <point x="105" y="257" type="line" smooth="yes"/>
      <point x="105" y="179"/>
      <point x="126" y="116"/>
      <point x="161" y="78" type="curve"/>
    </contour>
  </outline>
</glyph>
<glyph name="sterling" format="1">
  <advance width="571"/>
  <unicode hex="00A3"/>
  <outline>
    <contour>
      <point x="544" y="168" type="line"/>
      <point x="522" y="47"/>
      <point x="477" y="-6"/>
      <point x="376" y="-6" type="curve" smooth="yes"/>
      <point x="307" y="-6"/>
      <point x="254" y="21"/>
      <point x="193" y="65" type="curve"/>
      <point x="161" y="32"/>
      <point x="116" y="9"/>
      <point x="60" y="-6" type="curve"/>
      <point x="60" y="50" type="line"/>
      <point x="128" y="70"/>
      <point x="180" y="112"/>
      <point x="180" y="210" type="curve" smooth="yes"/>
      <point x="180" y="256"/>
      <point x="171" y="297"/>
      <point x="160" y="335" type="curve"/>
      <point x="39" y="335" type="line"/>
      <point x="39" y="380" type="line"/>
      <point x="146" y="380" type="line"/>
      <point x="129" y="432"/>
      <point x="113" y="482"/>
      <point x="113" y="537" type="curve" smooth="yes"/>
      <point x="113" y="645"/>
      <point x="180" y="732"/>
      <point x="313" y="732" type="curve" smooth="yes"/>
      <point x="410" y="732"/>
      <point x="470" y="696"/>
      <point x="513" y="629" type="curve"/>
      <point x="459" y="594" type="line"/>
      <point x="421" y="649"/>
      <point x="378" y="678"/>
      <point x="311" y="678" type="curve" smooth="yes"/>
      <point x="221" y="678"/>
      <point x="179" y="619"/>
      <point x="179" y="538" type="curve" smooth="yes"/>
      <point x="179" y="486"/>
      <point x="197" y="435"/>
      <point x="214" y="380" type="curve"/>
      <point x="405" y="380" type="line"/>
      <point x="405" y="335" type="line"/>
      <point x="228" y="335" type="line"/>
      <point x="237" y="298"/>
      <point x="245" y="257"/>
      <point x="245" y="212" type="curve" smooth="yes"/>
      <point x="245" y="173"/>
      <point x="238" y="141"/>
      <point x="225" y="113" type="curve"/>
      <point x="277" y="71"/>
      <point x="328" y="50"/>
      <point x="374" y="50" type="curve" smooth="yes"/>
      <point x="439" y="50"/>
      <point x="475" y="82"/>
      <point x="493" y="185" type="curve"/>
    </contour>
  </outline>
</glyph>
<glyph name="yen" format="1">
  <advance width="610"/>
  <unicode hex="00A5"/>
  <outline>
    <contour>
      <point x="587" y="720" type="line"/>
      <point x="397" y="382" type="line"/>
      <point x="538" y="382" type="line"/>
      <point x="538" y="338" type="line"/>
      <point x="372" y="338" type="line"/>
      <point x="339" y="278" type="line"/>
      <point x="339" y="199" type="line"/>
      <point x="538" y="199" type="line"/>
      <point x="538" y="154" type="line"/>
      <point x="339" y="154" type="line"/>
      <point x="339" y="0" type="line"/>
      <point x="271" y="0" type="line"/>
      <point x="271" y="154" type="line"/>
      <point x="71" y="154" type="line"/>
      <point x="71" y="199" type="line"/>
      <point x="271" y="199" type="line"/>
      <point x="271" y="277" type="line"/>
      <point x="237" y="338" type="line"/>
      <point x="71" y="338" type="line"/>
      <point x="71" y="382" type="line"/>
      <point x="213" y="382" type="line"/>
      <point x="22" y="720" type="line"/>
      <point x="99" y="720" type="line"/>
      <point x="307" y="332" type="line"/>
      <point x="515" y="720" type="line"/>
    </contour>
  </outline>
</glyph>
<glyph name="ordfeminine" format="1">
  <advance width="378"/>
  <unicode hex="00AA"/>
  <outline>
    <contour>
      <point x="338" y="373" type="line"/>
      <point x="287" y="371"/>
      <point x="260" y="392"/>
      <point x="254" y="432" type="curve"/>
      <point x="221" y="390"/>
      <point x="185" y="371"/>
      <point x="144" y="371" type="curve" smooth="yes"/>
      <point x="92" y="371"/>
      <point x="48" y="402"/>
      <point x="48" y="464" type="curve" smooth="yes"/>
      <point x="48" y="533"/>
      <point x="117" y="582"/>
      <point x="252" y="582" type="curve"/>
      <point x="252" y="619" type="line" smooth="yes"/>
      <point x="252" y="666"/>
      <point x="235" y="686"/>
      <point x="197" y="686" type="curve" smooth="yes"/>
      <point x="162" y="686"/>
      <point x="129" y="675"/>
      <point x="91" y="652" type="curve"/>
      <point x="75" y="688" type="line"/>
      <point x="115" y="709"/>
      <point x="152" y="725"/>
      <point x="204" y="725" type="curve" smooth="yes"/>
      <point x="272" y="725"/>
      <point x="302" y="693"/>
      <point x="302" y="621" type="curve" smooth="yes"/>
      <point x="302" y="446" type="line" smooth="yes"/>
      <point x="302" y="421"/>
      <point x="311" y="404"/>
      <point x="338" y="402" type="curve"/>
    </contour>
    <contour>
      <point x="326" y="257" type="line"/>
      <point x="51" y="257" type="line"/>
      <point x="51" y="294" type="line"/>
      <point x="326" y="294" type="line"/>
    </contour>
    <contour>
      <point x="252" y="464" type="curve"/>
      <point x="252" y="555" type="line"/>
      <point x="141" y="555"/>
      <point x="97" y="514"/>
      <point x="97" y="467" type="curve" smooth="yes"/>
      <point x="97" y="429"/>
      <point x="122" y="407"/>
      <point x="157" y="407" type="curve" smooth="yes"/>
      <point x="193" y="407"/>
      <point x="225" y="426"/>
    </contour>
  </outline>
</glyph>
<glyph name="guillemotleft" format="1">
  <advance width="456"/>
  <unicode hex="00AB"/>
  <outline>
    <contour>
      <point x="422" y="78" type="line"/>
      <point x="377" y="78" type="line"/>
      <point x="220" y="258" type="line"/>
      <point x="377" y="439" type="line"/>
      <point x="422" y="439" type="line"/>
      <point x="296" y="258" type="line"/>
    </contour>
    <contour>
      <point x="230" y="78" type="line"/>
      <point x="185" y="78" type="line"/>
      <point x="28" y="258" type="line"/>
      <point x="185" y="439" type="line"/>
      <point x="230" y="439" type="line"/>
      <point x="104" y="258" type="line"/>
    </contour>
  </outline>
</glyph>
<glyph name="degree" format="1">
  <advance width="400"/>
  <unicode hex="00B0"/>
  <outline>
    <contour>
      <point x="348" y="578" type="curve" smooth="yes"/>
      <point x="348" y="493"/>
      <point x="285" y="432"/>
      <point x="200" y="432" type="curve" smooth="yes"/>
      <point x="115" y="432"/>
      <point x="52" y="493"/>
      <point x="52" y="578" type="curve" smooth="yes"/>
      <point x="52" y="663"/>
      <point x="115" y="724"/>
      <point x="200" y="724" type="curve" smooth="yes"/>
      <point x="285" y="724"/>
      <point x="348" y="663"/>
    </contour>
    <contour>
      <point x="301" y="578" type="curve" smooth="yes"/>
      <point x="301" y="639"/>
      <point x="259" y="683"/>
      <point x="200" y="683" type="curve" smooth="yes"/>
      <point x="141" y="683"/>
      <point x="99" y="639"/>
      <point x="99" y="578" type="curve" smooth="yes"/>
      <point x="99" y="517"/>
      <point x="141" y="473"/>
      <point x="200" y="473" type="curve" smooth="yes"/>
      <point x="259" y="473"/>
      <point x="301" y="517"/>
    </contour>
  </outline>
</glyph>
<glyph name="acute" format="1">
  <advance width="500"/>
  <unicode hex="00B4"/>
  <outline>
    <contour>
      <point x="352" y="743" type="line"/>
      <point x="215" y="592" type="line"/>
      <point x="170" y="592" type="line"/>
      <point x="261" y="743" type="line"/>
    </contour>
  </outline>
</glyph>
<glyph name="periodcentered" format="1">
  <advance width="186"/>
  <unicode hex="00B7"/>
  <outline>
    <contour>
      <point x="142" y="278" type="curve" smooth="yes"/>
      <point x="142" y="249"/>
      <point x="121" y="228"/>
      <point x="93" y="228" type="curve" smooth="yes"/>
      <point x="64" y="228"/>
      <point x="43" y="249"/>
      <point x="43" y="278" type="curve" smooth="yes"/>
      <point x="43" y="307"/>
      <point x="64" y="328"/>
      <point x="93" y="328" type="curve" smooth="yes"/>
      <point x="121" y="328"/>
      <point x="142" y="307"/>
    </contour>
  </outline>
</glyph>
<glyph name="cedilla" format="1">
  <advance width="500"/>
  <unicode hex="00B8"/>
  <outline>
    <contour>
      <point x="371" y="-103" type="curve" smooth="yes"/>
      <point x="371" y="-164"/>
      <point x="297" y="-193"/>
      <point x="161" y="-191" type="curve"/>
      <point x="161" y="-167" type="line"/>
      <point x="276" y="-165"/>
      <point x="316" y="-144"/>
      <point x="316" y="-111" type="curve" smooth="yes"/>
      <point x="316" y="-93"/>
      <point x="303" y="-82"/>
      <point x="278" y="-82" type="curve" smooth="yes"/>
      <point x="257" y="-82"/>
      <point x="240" y="-86"/>
      <point x="223" y="-94" type="curve"/>
      <point x="201" y="-80" type="line"/>
      <point x="249" y="0" type="line"/>
      <point x="286" y="0" type="line"/>
      <point x="254" y="-54" type="line"/>
      <point x="268" y="-48"/>
      <point x="282" y="-45"/>
      <point x="300" y="-45" type="curve" smooth="yes"/>
      <point x="343" y="-45"/>
      <point x="371" y="-64"/>
    </contour>
  </outline>
</glyph>
<glyph name="Oslash" format="1">
  <advance width="617"/>
  <unicode hex="00D8"/>
  <outline>
    <contour>
      <point x="564" y="354" type="line" smooth="yes"/>
      <point x="564" y="131"/>
      <point x="469" y="-12"/>
      <point x="308" y="-12" type="curve" smooth="yes"/>
      <point x="254" y="-12"/>
      <point x="207" y="5"/>
      <point x="169" y="36" type="curve"/>
      <point x="103" y="-95" type="line"/>
      <point x="53" y="-95" type="line"/>
      <point x="135" y="67" type="line"/>
      <point x="81" y="129"/>
      <point x="53" y="229"/>
      <point x="53" y="353" type="curve" smooth="yes"/>
      <point x="53" y="366" type="line" smooth="yes"/>
      <point x="53" y="589"/>
      <point x="148" y="732"/>
      <point x="308" y="732" type="curve" smooth="yes"/>
      <point x="362" y="732"/>
      <point x="410" y="716"/>
      <point x="447" y="684" type="curve"/>
      <point x="513" y="817" type="line"/>
      <point x="564" y="817" type="line"/>
      <point x="481" y="654" type="line"/>
      <point x="534" y="591"/>
      <point x="564" y="492"/>
      <point x="564" y="367" type="curve" smooth="yes"/>
    </contour>
    <contour>
      <point x="420" y="629" type="line"/>
      <point x="391" y="661"/>
      <point x="354" y="678"/>
      <point x="308" y="678" type="curve" smooth="yes"/>
      <point x="185" y="678"/>
      <point x="123" y="551"/>
      <point x="123" y="372" type="curve" smooth="yes"/>
      <point x="123" y="350" type="line" smooth="yes"/>
      <point x="123" y="262"/>
      <point x="137" y="181"/>
      <point x="170" y="129" type="curve"/>
    </contour>
    <contour>
      <point x="494" y="348" type="curve" smooth="yes"/>
      <point x="494" y="370" type="line" smooth="yes"/>
      <point x="494" y="458"/>
      <point x="479" y="540"/>
      <point x="447" y="592" type="curve"/>
      <point x="196" y="91" type="line"/>
      <point x="225" y="59"/>
      <point x="262" y="42"/>
      <point x="308" y="42" type="curve" smooth="yes"/>
      <point x="432" y="42"/>
      <point x="494" y="168"/>
    </contour>
  </outline>
</glyph>
<glyph name="Thorn" format="1">
  <advance width="571"/>
  <unicode hex="00DE"/>
  <outline>
    <contour>
      <point x="531" y="372" type="curve" smooth="yes"/>
      <point x="531" y="238"/>
      <point x="445" y="163"/>
      <point x="291" y="163" type="curve" smooth="yes"/>
      <point x="156" y="163" type="line"/>
      <point x="156" y="0" type="line"/>
      <point x="84" y="0" type="line"/>
      <point x="84" y="720" type="line"/>
      <point x="156" y="720" type="line"/>
      <point x="156" y="577" type="line"/>
      <point x="296" y="577" type="line" smooth="yes"/>
      <point x="444" y="577"/>
      <point x="531" y="505"/>
    </contour>
    <contour>
      <point x="460" y="370" type="curve" smooth="yes"/>
      <point x="460" y="468"/>
      <point x="402" y="523"/>
      <point x="289" y="523" type="curve" smooth="yes"/>
      <point x="154" y="523" type="line"/>
      <point x="154" y="218" type="line"/>
      <point x="293" y="218" type="line" smooth="yes"/>
      <point x="400" y="218"/>
      <point x="460" y="269"/>
    </contour>
  </outline>
</glyph>
<glyph name="eth" format="1">
  <advance width="494"/>
  <unicode hex="00F0"/>
  <outline>
    <contour>
      <point x="449" y="273" type="line" smooth="yes"/>
      <point x="449" y="99"/>
      <point x="372" y="-10"/>
      <point x="246" y="-10" type="curve" smooth="yes"/>
      <point x="121" y="-10"/>
      <point x="42" y="98"/>
      <point x="42" y="254" type="curve" smooth="yes"/>
      <point x="42" y="261" type="line" smooth="yes"/>
      <point x="42" y="417"/>
      <point x="118" y="525"/>
      <point x="236" y="525" type="curve" smooth="yes"/>
      <point x="307" y="525"/>
      <point x="355" y="475"/>
      <point x="385" y="408" type="curve"/>
      <point x="391" y="408" type="line"/>
      <point x="381" y="504"/>
      <point x="338" y="586"/>
      <point x="285" y="653" type="curve"/>
      <point x="170" y="588" type="line"/>
      <point x="170" y="630" type="line"/>
      <point x="259" y="681" type="line"/>
      <point x="240" y="703"/>
      <point x="219" y="724"/>
      <point x="197" y="742" type="curve"/>
      <point x="253" y="762" type="line"/>
      <point x="270" y="744"/>
      <point x="289" y="725"/>
      <point x="306" y="704" type="curve"/>
      <point x="411" y="762" type="line"/>
      <point x="411" y="720" type="line"/>
      <point x="331" y="675" type="line"/>
      <point x="396" y="590"/>
      <point x="449" y="473"/>
      <point x="449" y="285" type="curve" smooth="yes"/>
    </contour>
    <contour>
      <point x="383" y="254" type="curve" smooth="yes"/>
      <point x="383" y="261" type="line" smooth="yes"/>
      <point x="383" y="393"/>
      <point x="334" y="481"/>
      <point x="246" y="481" type="curve" smooth="yes"/>
      <point x="158" y="481"/>
      <point x="108" y="394"/>
      <point x="108" y="263" type="curve" smooth="yes"/>
      <point x="108" y="256" type="line" smooth="yes"/>
      <point x="108" y="123"/>
      <point x="158" y="36"/>
      <point x="246" y="36" type="curve" smooth="yes"/>
      <point x="334" y="36"/>
      <point x="383" y="123"/>
    </contour>
  </outline>
</glyph>
<glyph name="lslash" format="1">
  <advance width="295"/>
  <unicode hex="0142"/>
  <outline>
    <contour>
      <point x="267" y="394" type="line"/>
      <point x="180" y="354" type="line"/>
      <point x="180" y="0" type="line"/>
      <point x="115" y="0" type="line"/>
      <point x="115" y="327" type="line"/>
      <point x="28" y="286" type="line"/>
      <point x="28" y="344" type="line"/>
      <point x="115" y="383" type="line"/>
      <point x="115" y="738" type="line"/>
      <point x="180" y="761" type="line"/>
      <point x="180" y="411" type="line"/>
      <point x="267" y="452" type="line"/>
    </contour>
  </outline>
</glyph>
<glyph name="oe" format="1">
  <advance width="802"/>
  <unicode hex="0153"/>
  <outline>
    <contour>
      <point x="761" y="246" type="line"/>
      <point x="448" y="246" type="line"/>
      <point x="450" y="110"/>
      <point x="507" y="39"/>
      <point x="596" y="39" type="curve" smooth="yes"/>
      <point x="648" y="39"/>
      <point x="689" y="61"/>
      <point x="730" y="100" type="curve"/>
      <point x="757" y="61" type="line"/>
      <point x="711" y="18"/>
      <point x="661" y="-10"/>
      <point x="592" y="-10" type="curve" smooth="yes"/>
      <point x="502" y="-10"/>
      <point x="445" y="42"/>
      <point x="421" y="136" type="curve"/>
      <point x="413" y="136" type="line"/>
      <point x="389" y="49"/>
      <point x="333" y="-10"/>
      <point x="244" y="-10" type="curve" smooth="yes"/>
      <point x="121" y="-10"/>
      <point x="42" y="98"/>
      <point x="42" y="254" type="curve" smooth="yes"/>
      <point x="42" y="261" type="line" smooth="yes"/>
      <point x="42" y="417"/>
      <point x="121" y="527"/>
      <point x="243" y="527" type="curve" smooth="yes"/>
      <point x="331" y="527"/>
      <point x="390" y="469"/>
      <point x="413" y="379" type="curve"/>
      <point x="421" y="379" type="line"/>
      <point x="444" y="469"/>
      <point x="499" y="527"/>
      <point x="579" y="527" type="curve" smooth="yes"/>
      <point x="692" y="527"/>
      <point x="761" y="421"/>
      <point x="761" y="258" type="curve" smooth="yes"/>
    </contour>
    <contour>
      <point x="697" y="285" type="line"/>
      <point x="690" y="413"/>
      <point x="652" y="482"/>
      <point x="577" y="482" type="curve" smooth="yes"/>
      <point x="501" y="482"/>
      <point x="454" y="405"/>
      <point x="449" y="285" type="curve"/>
    </contour>
    <contour>
      <point x="383" y="254" type="curve" smooth="yes"/>
      <point x="383" y="261" type="line" smooth="yes"/>
      <point x="383" y="393"/>
      <point x="334" y="481"/>
      <point x="246" y="481" type="curve" smooth="yes"/>
      <point x="158" y="481"/>
      <point x="108" y="394"/>
      <point x="108" y="263" type="curve" smooth="yes"/>
      <point x="108" y="256" type="line" smooth="yes"/>
      <point x="108" y="123"/>
      <point x="158" y="36"/>
      <point x="246" y="36" type="curve" smooth="yes"/>
      <point x="334" y="36"/>
      <point x="383" y="123"/>
    </contour>
  </outline>
</glyph>
<glyph name="florin" format="1">
  <advance width="442"/>
  <unicode hex="0192"/>
  <outline>
    <contour>
      <point x="430" y="713" type="curve"/>
      <point x="421" y="660" type="line"/>
      <point x="394" y="670"/>
      <point x="371" y="673"/>
      <point x="338" y="673" type="curve" smooth="yes"/>
      <point x="296" y="673"/>
      <point x="264" y="647"/>
      <point x="254" y="592" type="curve" smooth="yes"/>
      <point x="230" y="459" type="line"/>
      <point x="358" y="459" type="line"/>
      <point x="349" y="408" type="line"/>
      <point x="222" y="408" type="line"/>
      <point x="136" y="-78" type="line" smooth="yes"/>
      <point x="121" y="-162"/>
      <point x="72" y="-190"/>
      <point x="6" y="-190" type="curve" smooth="yes"/>
      <point x="-21" y="-190"/>
      <point x="-46" y="-185"/>
      <point x="-64" y="-180" type="curve"/>
      <point x="-55" y="-129" type="line"/>
      <point x="-37" y="-134"/>
      <point x="-17" y="-138"/>
      <point x="3" y="-138" type="curve" smooth="yes"/>
      <point x="35" y="-138"/>
      <point x="62" y="-118"/>
      <point x="70" y="-71" type="curve" smooth="yes"/>
      <point x="154" y="408" type="line"/>
      <point x="52" y="408" type="line"/>
      <point x="60" y="459" type="line"/>
      <point x="163" y="459" type="line"/>
      <point x="187" y="595" type="line" smooth="yes"/>
      <point x="203" y="688"/>
      <point x="257" y="726"/>
      <point x="336" y="726" type="curve" smooth="yes"/>
      <point x="373" y="726"/>
      <point x="404" y="721"/>
    </contour>
  </outline>
</glyph>
<glyph name="hungarumlaut" format="1">
  <advance width="500"/>
  <unicode hex="02DD"/>
  <outline>
    <contour>
      <point x="430" y="743" type="line"/>
      <point x="293" y="592" type="line"/>
      <point x="249" y="592" type="line"/>
      <point x="340" y="743" type="line"/>
    </contour>
    <contour>
      <point x="256" y="743" type="line"/>
      <point x="119" y="592" type="line"/>
      <point x="76" y="592" type="line"/>
      <point x="167" y="743" type="line"/>
    </contour>
  </outline>
</glyph>
<glyph name="quoteright" format="1">
  <advance width="186"/>
  <unicode hex="2019"/>
  <unicode hex="02BC"/>
  <outline>
    <contour>
      <point x="153" y="720" type="line"/>
      <point x="84" y="505" type="line"/>
      <point x="42" y="505" type="line"/>
      <point x="76" y="720" type="line"/>
    </contour>
  </outline>
</glyph>
<glyph name="quotesinglbase" format="1">
  <advance width="186"/>
  <unicode hex="201A"/>
  <outline>
    <contour>
      <point x="142" y="96" type="line"/>
      <point x="73" y="-119" type="line"/>
      <point x="31" y="-119" type="line"/>
      <point x="65" y="96" type="line"/>
    </contour>
  </outline>
</glyph>
<glyph name="quotedblleft" format="1">
  <advance width="334"/>
  <unicode hex="201C"/>
  <outline>
    <contour>
      <point x="291" y="505" type="line"/>
      <point x="250" y="505" type="line"/>
      <point x="181" y="720" type="line"/>
      <point x="258" y="720" type="line"/>
    </contour>
    <contour>
      <point x="143" y="505" type="line"/>
      <point x="102" y="505" type="line"/>
      <point x="32" y="720" type="line"/>
      <point x="109" y="720" type="line"/>
    </contour>
  </outline>
</glyph>
<glyph name="quotedblright" format="1">
  <advance width="334"/>
  <unicode hex="201D"/>
  <outline>
    <contour>
      <point x="301" y="720" type="line"/>
      <point x="232" y="505" type="line"/>
      <point x="191" y="505" type="line"/>
      <point x="224" y="720" type="line"/>
    </contour>
    <contour>
      <point x="153" y="720" type="line"/>
      <point x="83" y="505" type="line"/>
      <point x="42" y="505" type="line"/>
      <point x="76" y="720" type="line"/>
    </contour>
  </outline>
</glyph>
<glyph name="daggerdbl" format="1">
  <advance width="463"/>
  <unicode hex="2021"/>
  <outline>
    <contour>
      <point x="416" y="176" type="line"/>
      <point x="251" y="194" type="line"/>
      <point x="269" y="0" type="line"/>
      <point x="194" y="0" type="line"/>
      <point x="212" y="194" type="line"/>
      <point x="47" y="176" type="line"/>
      <point x="47" y="235" type="line"/>
      <point x="212" y="218" type="line"/>
      <point x="195" y="360" type="line"/>
      <point x="212" y="502" type="line"/>
      <point x="47" y="485" type="line"/>
      <point x="47" y="544" type="line"/>
      <point x="212" y="526" type="line"/>
      <point x="194" y="720" type="line"/>
      <point x="269" y="720" type="line"/>
      <point x="251" y="526" type="line"/>
      <point x="416" y="544" type="line"/>
      <point x="416" y="485" type="line"/>
      <point x="251" y="502" type="line"/>
      <point x="268" y="360" type="line"/>
      <point x="251" y="218" type="line"/>
      <point x="416" y="235" type="line"/>
    </contour>
  </outline>
</glyph>
<glyph name="ellipsis" format="1">
  <advance width="589"/>
  <unicode hex="2026"/>
  <outline>
    <contour>
      <point x="543" y="39" type="curve" smooth="yes"/>
      <point x="543" y="13"/>
      <point x="524" y="-7"/>
      <point x="497" y="-7" type="curve" smooth="yes"/>
      <point x="471" y="-7"/>
      <point x="451" y="13"/>
      <point x="451" y="39" type="curve" smooth="yes"/>
      <point x="451" y="66"/>
      <point x="471" y="85"/>
      <point x="497" y="85" type="curve" smooth="yes"/>
      <point x="524" y="85"/>
      <point x="543" y="66"/>
    </contour>
    <contour>
      <point x="341" y="39" type="curve" smooth="yes"/>
      <point x="341" y="13"/>
      <point x="321" y="-7"/>
      <point x="295" y="-7" type="curve" smooth="yes"/>
      <point x="268" y="-7"/>
      <point x="248" y="13"/>
      <point x="248" y="39" type="curve" smooth="yes"/>
      <point x="248" y="66"/>
      <point x="268" y="85"/>
      <point x="295" y="85" type="curve" smooth="yes"/>
      <point x="321" y="85"/>
      <point x="341" y="66"/>
    </contour>
    <contour>
      <point x="138" y="39" type="curve" smooth="yes"/>
      <point x="138" y="13"/>
      <point x="119" y="-7"/>
      <point x="92" y="-7" type="curve" smooth="yes"/>
      <point x="66" y="-7"/>
      <point x="46" y="13"/>
      <point x="46" y="39" type="curve" smooth="yes"/>
      <point x="46" y="66"/>
      <point x="66" y="85"/>
      <point x="92" y="85" type="curve" smooth="yes"/>
      <point x="119" y="85"/>
      <point x="138" y="66"/>
    </contour>
  </outline>
</glyph>
<glyph name="Euro" format="1">
  <advance width="579"/>
  <unicode hex="20AC"/>
  <outline>
    <contour>
      <point x="540" y="191" type="line"/>
      <point x="501" y="71"/>
      <point x="436" y="-12"/>
      <point x="307" y="-12" type="curve" smooth="yes"/>
      <point x="149" y="-12"/>
      <point x="53" y="129"/>
      <point x="53" y="353" type="curve" smooth="yes"/>
      <point x="53" y="366" type="line" smooth="yes"/>
      <point x="53" y="589"/>
      <point x="148" y="732"/>
      <point x="309" y="732" type="curve" smooth="yes"/>
      <point x="427" y="732"/>
      <point x="496" y="666"/>
      <point x="535" y="545" type="curve"/>
      <point x="479" y="520" type="line"/>
      <point x="446" y="622"/>
      <point x="396" y="677"/>
      <point x="310" y="677" type="curve" smooth="yes"/>
      <point x="206" y="677"/>
      <point x="145" y="588"/>
      <point x="128" y="455" type="curve"/>
      <point x="356" y="455" type="line"/>
      <point x="356" y="410" type="line"/>
      <point x="124" y="410" type="line"/>
      <point x="123" y="396"/>
      <point x="122" y="381"/>
      <point x="122" y="366" type="curve" smooth="yes"/>
      <point x="122" y="355" type="line" smooth="yes"/>
      <point x="122" y="336"/>
      <point x="123" y="317"/>
      <point x="125" y="300" type="curve"/>
      <point x="356" y="300" type="line"/>
      <point x="356" y="255" type="line"/>
      <point x="129" y="255" type="line"/>
      <point x="148" y="129"/>
      <point x="209" y="43"/>
      <point x="312" y="43" type="curve" smooth="yes"/>
      <point x="399" y="43"/>
      <point x="455" y="105"/>
      <point x="486" y="212" type="curve"/>
    </contour>
  </outline>
</glyph>
<glyph name="uni2117" format="1">
  <advance width="835"/>
  <unicode hex="2117"/>
  <outline>
    <contour>
      <point x="790" y="360" type="curve" smooth="yes"/>
      <point x="790" y="150"/>
      <point x="628" y="-12"/>
      <point x="417" y="-12" type="curve" smooth="yes"/>
      <point x="207" y="-12"/>
      <point x="46" y="149"/>
      <point x="46" y="360" type="curve" smooth="yes"/>
      <point x="46" y="570"/>
      <point x="207" y="732"/>
      <point x="418" y="732" type="curve" smooth="yes"/>
      <point x="628" y="732"/>
      <point x="790" y="571"/>
    </contour>
    <contour>
      <point x="753" y="360" type="curve" smooth="yes"/>
      <point x="753" y="553"/>
      <point x="610" y="700"/>
      <point x="417" y="700" type="curve" smooth="yes"/>
      <point x="225" y="700"/>
      <point x="82" y="553"/>
      <point x="82" y="360" type="curve" smooth="yes"/>
      <point x="82" y="167"/>
      <point x="225" y="20"/>
      <point x="418" y="20" type="curve" smooth="yes"/>
      <point x="611" y="20"/>
      <point x="753" y="167"/>
    </contour>
    <contour>
      <point x="575" y="446" type="curve" smooth="yes"/>
      <point x="575" y="370"/>
      <point x="524" y="325"/>
      <point x="433" y="325" type="curve" smooth="yes"/>
      <point x="366" y="325" type="line"/>
      <point x="366" y="159" type="line"/>
      <point x="311" y="159" type="line"/>
      <point x="311" y="565" type="line"/>
      <point x="437" y="565" type="line" smooth="yes"/>
      <point x="523" y="565"/>
      <point x="575" y="521"/>
    </contour>
    <contour>
      <point x="520" y="445" type="curve" smooth="yes"/>
      <point x="520" y="492"/>
      <point x="490" y="520"/>
      <point x="432" y="520" type="curve" smooth="yes"/>
      <point x="365" y="520" type="line"/>
      <point x="365" y="369" type="line"/>
      <point x="434" y="369" type="line" smooth="yes"/>
      <point x="489" y="369"/>
      <point x="520" y="395"/>
    </contour>
  </outline>
</glyph>
<glyph name="trademark" format="1">
  <advance width="780"/>
  <unicode hex="2122"/>
  <outline>
    <contour>
      <point x="712" y="380" type="line"/>
      <point x="671" y="380" type="line"/>
      <point x="671" y="680" type="line"/>
      <point x="669" y="680" type="line"/>
      <point x="563" y="380" type="line"/>
      <point x="515" y="380" type="line"/>
      <point x="409" y="680" type="line"/>
      <point x="407" y="680" type="line"/>
      <point x="407" y="380" type="line"/>
      <point x="365" y="380" type="line"/>
      <point x="365" y="720" type="line"/>
      <point x="438" y="720" type="line"/>
      <point x="538" y="427" type="line"/>
      <point x="541" y="427" type="line"/>
      <point x="641" y="720" type="line"/>
      <point x="712" y="720" type="line"/>
    </contour>
    <contour>
      <point x="299" y="683" type="line"/>
      <point x="189" y="683" type="line"/>
      <point x="189" y="380" type="line"/>
      <point x="145" y="380" type="line"/>
      <point x="145" y="683" type="line"/>
      <point x="35" y="683" type="line"/>
      <point x="35" y="720" type="line"/>
      <point x="299" y="720" type="line"/>
    </contour>
  </outline>
</glyph>
<glyph name="apple" format="1">
  <advance width="500"/>
  <unicode hex="F8FF"/>
  <outline>
    <contour>
      <point x="462" y="173" type="line"/>
      <point x="439" y="109" type="line"/>
      <point x="264" y="188" type="line"/>
      <point x="285" y="0" type="line"/>
      <point x="215" y="0" type="line"/>
      <point x="236" y="188" type="line"/>
      <point x="61" y="109" type="line"/>
      <point x="38" y="173" type="line"/>
      <point x="224" y="214" type="line"/>
      <point x="92" y="358" type="line"/>
      <point x="92" y="362" type="line"/>
      <point x="224" y="506" type="line"/>
      <point x="38" y="547" type="line"/>
      <point x="61" y="611" type="line"/>
      <point x="236" y="532" type="line"/>
      <point x="215" y="720" type="line"/>
      <point x="285" y="720" type="line"/>
      <point x="264" y="532" type="line"/>
      <point x="439" y="611" type="line"/>
      <point x="462" y="547" type="line"/>
      <point x="276" y="506" type="line"/>
      <point x="408" y="362" type="line"/>
      <point x="408" y="358" type="line"/>
      <point x="276" y="214" type="line"/>
    </contour>
    <contour>
      <point x="339" y="360" type="line"/>
      <point x="250" y="495" type="line"/>
      <point x="161" y="360" type="line"/>
      <point x="250" y="225" type="line"/>
    </contour>
  </outline>
</glyph>
<glyph name="f_f_i" format="1">
  <advance width="831"/>
  <unicode hex="FB03"/>
  <outline>
    <contour>
      <point x="759" y="637" type="line"/>
      <point x="678" y="637" type="line"/>
      <point x="678" y="722" type="line"/>
      <point x="759" y="722" type="line"/>
    </contour>
    <contour>
      <point x="752" y="0" type="line"/>
      <point x="685" y="0" type="line"/>
      <point x="685" y="517" type="line"/>
      <point x="752" y="517" type="line"/>
    </contour>
    <contour>
      <point x="621" y="692" type="line"/>
      <point x="600" y="703"/>
      <point x="575" y="711"/>
      <point x="539" y="711" type="curve" smooth="yes"/>
      <point x="494" y="711"/>
      <point x="469" y="684"/>
      <point x="469" y="625" type="curve" smooth="yes"/>
      <point x="469" y="512" type="line"/>
      <point x="598" y="512" type="line"/>
      <point x="598" y="464" type="line"/>
      <point x="469" y="464" type="line"/>
      <point x="469" y="0" type="line"/>
      <point x="403" y="0" type="line"/>
      <point x="403" y="464" type="line"/>
      <point x="187" y="464" type="line"/>
      <point x="187" y="0" type="line"/>
      <point x="121" y="0" type="line"/>
      <point x="121" y="464" type="line"/>
      <point x="17" y="464" type="line"/>
      <point x="17" y="512" type="line"/>
      <point x="121" y="512" type="line"/>
      <point x="121" y="622" type="line" smooth="yes"/>
      <point x="121" y="714"/>
      <point x="172" y="759"/>
      <point x="251" y="759" type="curve" smooth="yes"/>
      <point x="292" y="759"/>
      <point x="316" y="754"/>
      <point x="339" y="746" type="curve"/>
      <point x="339" y="692" type="line"/>
      <point x="318" y="703"/>
      <point x="293" y="711"/>
      <point x="257" y="711" type="curve" smooth="yes"/>
      <point x="212" y="711"/>
      <point x="187" y="684"/>
      <point x="187" y="625" type="curve" smooth="yes"/>
      <point x="187" y="512" type="line"/>
      <point x="403" y="512" type="line"/>
      <point x="403" y="622" type="line" smooth="yes"/>
      <point x="403" y="714"/>
      <point x="454" y="759"/>
      <point x="533" y="759" type="curve" smooth="yes"/>
      <point x="574" y="759"/>
      <point x="598" y="754"/>
      <point x="621" y="746" type="curve"/>
    </contour>
  </outline>
</glyph>
<glyph name="bullet" format="1">
  <advance width="361"/>
  <outline>
    <contour>
      <point x="303" y="373" type="curve" smooth="yes"/>
      <point x="303" y="304"/>
      <point x="249" y="250"/>
      <point x="180" y="250" type="curve" smooth="yes"/>
      <point x="111" y="250"/>
      <point x="57" y="304"/>
      <point x="57" y="373" type="curve" smooth="yes"/>
      <point x="57" y="442"/>
      <point x="111" y="496"/>
      <point x="180" y="496" type="curve" smooth="yes"/>
      <point x="249" y="496"/>
      <point x="303" y="442"/>
    </contour>
  </outline>
</glyph>
